<svg id="Слой_1" data-name="Слой 1" xmlns="http://www.w3.org/2000/svg" viewBox="0 0 23.2 26.2"><defs><style>.cls-1{fill:#fff;}.cls-2{fill:#b3b3b3;}</style></defs><title>polzun</title><path class="cls-1" d="M15.88,4.46C19.5,6.77,22.6,10,22.6,14.6a11,11,0,0,1-22,0c0-4.53,3.07-7.82,6.66-10.11C8.49,3.71,10.14.6,11.6.6S14.67,3.69,15.88,4.46Z"/><path class="cls-2" d="M11.6,26.2A11.61,11.61,0,0,1,0,14.6C0,10.49,2.33,6.92,6.94,4A8.51,8.51,0,0,0,8.37,2.47C9.38,1.25,10.47,0,11.6,0s2.19,1.25,3.18,2.45A8.52,8.52,0,0,0,16.2,4h0c4.65,3,7,6.54,7,10.64A11.61,11.61,0,0,1,11.6,26.2Zm0-25c-.61,0-1.59,1.18-2.3,2A9.32,9.32,0,0,1,7.58,5C3.35,7.7,1.2,10.93,1.2,14.6a10.4,10.4,0,0,0,20.8,0c0-3.67-2.17-6.91-6.44-9.63h0a8.73,8.73,0,0,1-1.71-1.76c-.7-.85-1.65-2-2.25-2Z"/></svg>