<svg id="Слой_1" data-name="Слой 1" xmlns="http://www.w3.org/2000/svg" viewBox="0 0 26.2 23.2"><defs><style>.cls-1{fill:#fff;}.cls-2{fill:#b3b3b3;}.cls-3{fill:#435993;}</style></defs><title>polzun-r-m</title><path class="cls-1" d="M21.74,15.88C19.43,19.5,16.16,22.6,11.6,22.6a11,11,0,0,1,0-22c4.53,0,7.82,3.07,10.11,6.66.78,1.23,3.89,2.88,3.89,4.34S22.51,14.67,21.74,15.88Z"/><path class="cls-2" d="M0,11.6A11.61,11.61,0,0,1,11.6,0c4.11,0,7.68,2.33,10.61,6.94a9,9,0,0,0,1.52,1.43c1.21,1,2.47,2.1,2.47,3.23S25,13.79,23.75,14.78a8.52,8.52,0,0,0-1.51,1.42h0c-3,4.65-6.54,7-10.64,7A11.61,11.61,0,0,1,0,11.6Zm25,0C25,11,23.82,10,23,9.3A9.32,9.32,0,0,1,21.2,7.58C18.5,3.35,15.27,1.2,11.6,1.2a10.4,10.4,0,0,0,0,20.8c3.67,0,6.91-2.17,9.63-6.44h0A8.73,8.73,0,0,1,23,13.85c.84-.7,2-1.65,2-2.25Z"/><circle class="cls-3" cx="11.6" cy="11.6" r="5.5"/></svg>